<svg id="Capa_1" enable-background="new 0 0 512 512" height="512" viewBox="0 0 512 512" width="512" xmlns="http://www.w3.org/2000/svg"><g><path d="m512 206.757c0 54.393-44.102 98.485-98.495 98.485h-413.505v-98.485h315.019c0-54.394 44.092-98.485 98.485-98.485 27.197 0 51.818 11.023 69.65 28.845 17.823 17.822 28.846 42.443 28.846 69.64z" fill="#e9e9e9"/><path d="m413.502 108.264c-33.13 15.854-56.011 59.308-56.011 98.496 0 13.598 5.511 25.909 14.423 34.82 3.925 3.925 8.52 7.191 13.588 9.622-6.428 3.08-13.629 4.801-21.242 4.801-13.598 0-25.909-5.511-34.82-14.423-8.911-8.911-14.423-21.222-14.423-34.82 0-54.394 44.091-98.496 98.485-98.496z" fill="#dedede"/><path d="m288.811 108.267c0 54.393-44.102 98.485-98.495 98.485l-190.316 15.08v-113.565h91.83c0-54.394 44.092-98.485 98.485-98.485 27.197 0 51.818 11.023 69.65 28.845 17.823 17.822 28.846 42.443 28.846 69.64z" fill="#e9e9e9"/><path d="m190.313 9.774c-33.131 15.854-56.011 59.308-56.011 98.496 0 13.598 5.511 25.909 14.423 34.82 3.925 3.925 8.52 7.191 13.588 9.622-6.428 3.08-13.629 4.801-21.242 4.801-13.598 0-25.909-5.511-34.82-14.423-8.911-8.911-14.423-21.222-14.423-34.82-.001-54.394 44.091-98.496 98.485-98.496z" fill="#dedede"/><path d="m427.341 403.733c0-54.393-44.102-98.485-98.495-98.485l-328.846-20.68v119.165h230.36c0 54.393 44.092 98.485 98.485 98.485 27.197 0 51.818-11.023 69.65-28.845 17.823-17.822 28.846-42.443 28.846-69.64z" fill="#e9e9e9"/><g fill="#dedede"><path d="m328.843 502.226c-33.13-15.854-56.011-59.308-56.011-98.496 0-13.598 5.511-25.909 14.423-34.82 3.925-3.925 8.52-7.191 13.588-9.622-6.428-3.08-13.629-4.801-21.242-4.801-13.598 0-25.909 5.511-34.82 14.423-8.911 8.911-14.423 21.222-14.423 34.82-.001 54.394 44.091 98.496 98.485 98.496z"/><path d="m279.471 354.485c-28.092.078-49.878 24.093-49.06 52.174.758 26.036 11.621 49.537 28.803 66.719 6.068 6.068 12.918 11.342 20.397 15.669v-18.492c-20.219-14.94-33.449-38.837-33.783-65.771-.228-18.392 14.053-34.099 32.432-34.82 17.11-.671 31.582 11.471 34.574 27.591.67 3.61 3.897 6.183 7.569 6.183 4.804 0 8.496-4.348 7.617-9.07-4.264-22.91-24.388-40.25-48.549-40.183z"/><path d="m412.628 218.749c.879-4.723-2.813-9.071-7.617-9.071-3.672 0-6.899 2.572-7.569 6.183-2.992 16.12-17.464 28.262-34.574 27.591-18.379-.721-32.66-16.428-32.432-34.82.334-26.935 13.565-50.831 33.783-65.771v-18.492c-7.479 4.327-14.33 9.601-20.397 15.669-17.182 17.182-28.044 40.683-28.803 66.719-.818 28.08 20.968 52.095 49.06 52.174 24.161.067 44.284-17.272 48.549-40.182z"/><path d="m189.439 120.258c.879-4.723-2.813-9.07-7.617-9.07-3.672 0-6.899 2.572-7.569 6.183-2.992 16.12-17.464 28.262-34.574 27.591-18.379-.721-32.66-16.428-32.432-34.82.334-26.935 13.565-50.831 33.783-65.771v-18.493c-7.479 4.327-14.33 9.601-20.397 15.669-17.182 17.182-28.044 40.683-28.803 66.719-.818 28.08 20.968 52.095 49.06 52.174 24.161.068 44.284-17.272 48.549-40.182z"/><path d="m147.031 471.509h-103.28c-4.268 0-7.726-3.459-7.726-7.726s3.459-7.726 7.726-7.726h103.281c4.268 0 7.726 3.459 7.726 7.726s-3.459 7.726-7.727 7.726z"/></g><path d="m54.052 72.523h-43.749c-4.268 0-7.726-3.459-7.726-7.726s3.459-7.726 7.726-7.726h43.749c4.268 0 7.726 3.459 7.726 7.726s-3.458 7.726-7.726 7.726z" fill="#e9e9e9"/><path d="m200.508 290.262h-185.026c-4.138 0-7.493 3.355-7.493 7.493 0 4.138 3.355 7.493 7.493 7.493h185.026c4.138 0 7.493-3.355 7.493-7.493 0-4.138-3.355-7.493-7.493-7.493z" fill="#dedede"/><path d="m117.909 184.157h-96.757c-4.138 0-7.493 3.355-7.493 7.493 0 4.138 3.355 7.493 7.493 7.493h96.757c4.138 0 7.493-3.355 7.493-7.493 0-4.138-3.354-7.493-7.493-7.493z" fill="#dedede"/></g></svg>